<svg width="1920" height="1080" viewBox="0 0 1920 1080" fill="none" xmlns="http://www.w3.org/2000/svg">
<g clip-path="url(#clip0_17_75)">
<rect width="1920" height="1080" fill="url(#paint0_linear_17_75)"/>
<circle cx="78" cy="540" r="750" fill="#2B4248"/>
<path d="M210.536 515.997C221.342 472.662 246.369 434.179 281.632 406.677C316.894 379.175 360.366 364.235 405.124 364.235C449.881 364.235 493.352 379.175 528.616 406.677C563.879 434.179 588.905 472.662 599.711 515.997H582.135C552.484 515.561 523.442 524.402 499.085 541.279C497.679 542.294 496.211 543.222 494.691 544.056H492.64C491.12 543.222 489.652 542.294 488.246 541.279C463.674 524.793 434.734 515.988 405.124 515.988C375.513 515.988 346.573 524.793 322.001 541.279C320.594 542.294 319.127 543.222 317.606 544.056H315.556C314.035 543.222 312.568 542.294 311.162 541.279C286.805 524.402 257.763 515.561 228.112 515.997H210.536ZM550.497 607.626C559.52 600.616 570.702 596.948 582.135 597.251H605.716V550.34H582.135C561.998 550.097 542.322 556.351 526.036 568.169C516.871 574.91 505.785 578.548 494.398 578.548C483.012 578.548 471.925 574.91 462.76 568.169C446.061 556.571 426.202 550.353 405.856 550.353C385.509 550.353 365.65 556.571 348.952 568.169C339.787 574.91 328.7 578.548 317.313 578.548C305.927 578.548 294.84 574.91 285.676 568.169C269.189 556.198 249.231 549.938 228.845 550.34H204.53V597.251H228.112C239.544 596.948 250.728 600.616 259.75 607.626C276.419 619.233 296.255 625.455 316.581 625.455C336.907 625.455 356.744 619.233 373.412 607.626C382.447 600.638 393.621 596.973 405.05 597.251C416.487 596.923 427.677 600.594 436.688 607.626C453.387 619.226 473.246 625.443 493.592 625.443C513.939 625.443 533.798 619.226 550.497 607.626ZM550.497 691.511C559.52 684.501 570.702 680.833 582.135 681.135H605.716V634.224H582.135C561.998 633.981 542.322 640.235 526.036 652.053C516.871 658.795 505.785 662.432 494.398 662.432C483.012 662.432 471.925 658.795 462.76 652.053C446.061 640.455 426.202 634.238 405.856 634.238C385.509 634.238 365.65 640.455 348.952 652.053C339.787 658.795 328.7 662.432 317.313 662.432C305.927 662.432 294.84 658.795 285.676 652.053C269.189 640.084 249.231 633.822 228.845 634.224H204.53V681.135H228.112C239.544 680.833 250.728 684.501 259.75 691.511C276.419 703.117 296.255 709.34 316.581 709.34C336.907 709.34 356.744 703.117 373.412 691.511C382.447 684.522 393.621 680.857 405.05 681.135C416.487 680.808 427.677 684.479 436.688 691.511C453.387 703.11 473.246 709.327 493.592 709.327C513.939 709.327 533.798 703.11 550.497 691.511Z" fill="#E5F3F6"/>
<path d="M945.408 547C943.019 547 941.824 545.848 941.824 543.544V505.656H931.712C929.323 505.656 928.128 504.547 928.128 502.328V486.968C928.128 484.749 929.323 483.64 931.712 483.64H941.824V480.44C941.824 470.541 944.555 462.989 950.016 457.784C955.563 452.493 963.584 449.848 974.08 449.848C979.883 449.848 985.685 450.659 991.488 452.28C993.621 452.877 994.517 454.2 994.176 456.248L992.256 470.2C992.085 471.309 991.616 472.12 990.848 472.632C990.165 473.144 989.269 473.229 988.16 472.888C984.917 472.205 981.973 471.864 979.328 471.864C976.171 471.864 973.653 472.632 971.776 474.168C969.899 475.619 968.96 477.581 968.96 480.056V483.64H986.112C988.587 483.64 989.824 484.749 989.824 486.968V502.328C989.824 504.547 988.587 505.656 986.112 505.656H968.96V543.544C968.96 545.848 967.808 547 965.504 547H945.408ZM1030.95 549.432C1019.69 549.432 1010.64 546.317 1003.82 540.088C996.991 533.773 993.578 525.496 993.578 515.256C993.578 505.016 996.991 496.781 1003.82 490.552C1010.64 484.323 1019.69 481.208 1030.95 481.208C1042.3 481.208 1051.39 484.323 1058.22 490.552C1065.13 496.781 1068.59 505.016 1068.59 515.256C1068.59 525.496 1065.13 533.773 1058.22 540.088C1051.39 546.317 1042.3 549.432 1030.95 549.432ZM1030.95 528.312C1034.96 528.312 1038.16 527.117 1040.55 524.728C1043.03 522.339 1044.27 519.181 1044.27 515.256C1044.27 511.331 1043.03 508.173 1040.55 505.784C1038.16 503.395 1034.96 502.2 1030.95 502.2C1027.03 502.2 1023.87 503.395 1021.48 505.784C1019.09 508.173 1017.9 511.331 1017.9 515.256C1017.9 519.181 1019.09 522.339 1021.48 524.728C1023.87 527.117 1027.03 528.312 1030.95 528.312ZM1112.58 549.432C1101.32 549.432 1092.27 546.317 1085.44 540.088C1078.62 533.773 1075.2 525.496 1075.2 515.256C1075.2 505.016 1078.62 496.781 1085.44 490.552C1092.27 484.323 1101.32 481.208 1112.58 481.208C1123.93 481.208 1133.02 484.323 1139.84 490.552C1146.76 496.781 1150.21 505.016 1150.21 515.256C1150.21 525.496 1146.76 533.773 1139.84 540.088C1133.02 546.317 1123.93 549.432 1112.58 549.432ZM1112.58 528.312C1116.59 528.312 1119.79 527.117 1122.18 524.728C1124.65 522.339 1125.89 519.181 1125.89 515.256C1125.89 511.331 1124.65 508.173 1122.18 505.784C1119.79 503.395 1116.59 502.2 1112.58 502.2C1108.65 502.2 1105.5 503.395 1103.11 505.784C1100.72 508.173 1099.52 511.331 1099.52 515.256C1099.52 519.181 1100.72 522.339 1103.11 524.728C1105.5 527.117 1108.65 528.312 1112.58 528.312ZM1245.66 544.056C1245.83 546.189 1244.89 547.512 1242.84 548.024C1238.83 548.963 1234.74 549.432 1230.56 549.432C1221.43 549.432 1215.07 546.701 1211.48 541.24C1206.96 546.701 1199.84 549.432 1190.11 549.432C1180.21 549.432 1172.19 546.275 1166.04 539.96C1159.9 533.645 1156.83 525.411 1156.83 515.256C1156.83 505.101 1159.9 496.909 1166.04 490.68C1172.19 484.365 1180.21 481.208 1190.11 481.208C1197.11 481.208 1202.87 482.957 1207.39 486.456V455.736C1207.39 453.432 1208.58 452.28 1210.97 452.28H1230.94C1233.24 452.28 1234.4 453.432 1234.4 455.736V521.656C1234.4 523.619 1234.69 524.984 1235.29 525.752C1235.89 526.52 1236.91 526.904 1238.36 526.904C1239.13 526.904 1239.77 526.861 1240.28 526.776C1242.59 526.776 1243.87 527.757 1244.12 529.72L1245.66 544.056ZM1194.84 529.592C1198.68 529.592 1201.71 528.312 1203.93 525.752C1206.15 523.192 1207.26 519.693 1207.26 515.256C1207.26 510.904 1206.15 507.448 1203.93 504.888C1201.71 502.243 1198.68 500.92 1194.84 500.92C1191.17 500.92 1188.23 502.243 1186.01 504.888C1183.79 507.533 1182.68 510.989 1182.68 515.256C1182.68 519.523 1183.79 522.979 1186.01 525.624C1188.23 528.269 1191.17 529.592 1194.84 529.592ZM1276.68 549.432C1269.43 549.432 1263.76 547.896 1259.66 544.824C1255.56 541.667 1253.52 537.315 1253.52 531.768V455.736C1253.52 453.432 1254.71 452.28 1257.1 452.28H1277.07C1279.46 452.28 1280.65 453.432 1280.65 455.736V521.656C1280.65 523.619 1280.91 524.984 1281.42 525.752C1282.02 526.52 1283.04 526.904 1284.49 526.904C1285.26 526.904 1285.9 526.861 1286.41 526.776C1288.72 526.776 1290 527.757 1290.25 529.72L1291.79 544.056C1291.96 546.189 1291.02 547.512 1288.97 548.024C1284.96 548.963 1280.87 549.432 1276.68 549.432ZM1333.69 579.896C1323.19 579.896 1314.75 577.72 1308.35 573.368C1301.95 569.101 1298.23 563.256 1297.21 555.832C1297.04 554.723 1297.25 553.827 1297.85 553.144C1298.45 552.547 1299.34 552.248 1300.54 552.248H1320.25C1321.53 552.248 1322.85 553.059 1324.22 554.68C1326.01 558.008 1329.12 559.672 1333.56 559.672C1336.63 559.672 1339.02 558.819 1340.73 557.112C1342.44 555.491 1343.29 553.144 1343.29 550.072V543.544C1338.25 546.787 1332.49 548.408 1326.01 548.408C1317.82 548.408 1311.29 545.976 1306.43 541.112C1301.56 536.248 1299.13 529.805 1299.13 521.784V486.968C1299.13 484.749 1300.32 483.64 1302.71 483.64H1322.68C1325.07 483.64 1326.27 484.749 1326.27 486.968V515.64C1326.27 522.211 1329.04 525.496 1334.59 525.496C1340.39 525.496 1343.29 522.253 1343.29 515.768V486.968C1343.29 484.749 1344.44 483.64 1346.75 483.64H1366.84C1369.23 483.64 1370.43 484.749 1370.43 486.968V549.048C1370.43 558.52 1367.14 566.029 1360.57 571.576C1354 577.123 1345.04 579.896 1333.69 579.896Z" fill="#E5F3F6"/>
<path d="M948.096 640.96C944.384 640.96 941.376 639.829 939.072 637.568C936.811 635.307 935.68 632.32 935.68 628.608V615.488H929.28C928.64 615.488 928.32 615.168 928.32 614.528V610.24C928.32 609.6 928.64 609.28 929.28 609.28H935.68V600.768C935.68 600.128 936 599.808 936.64 599.808H942.528C943.168 599.808 943.488 600.128 943.488 600.768V609.28H954.368C955.008 609.28 955.328 609.6 955.328 610.24V614.528C955.328 615.168 955.008 615.488 954.368 615.488H943.488V628.352C943.488 630.101 943.979 631.509 944.96 632.576C945.984 633.6 947.328 634.112 948.992 634.112C950.784 634.112 952.469 633.92 954.048 633.536C954.688 633.408 955.072 633.664 955.2 634.304L955.968 638.784C956.011 639.339 955.755 639.723 955.2 639.936C952.555 640.619 950.187 640.96 948.096 640.96ZM995.315 640.96C992.627 640.96 990.451 640.32 988.787 639.04C987.166 637.717 986.355 635.989 986.355 633.856V623.296C986.355 620.821 985.63 618.837 984.179 617.344C982.728 615.808 980.83 615.04 978.483 615.04C976.008 615.04 974.003 615.765 972.467 617.216C970.931 618.624 970.163 620.501 970.163 622.848V639.04C970.163 639.68 969.843 640 969.203 640H963.315C962.675 640 962.355 639.68 962.355 639.04V593.6C962.355 592.96 962.675 592.64 963.315 592.64H969.203C969.843 592.64 970.163 592.96 970.163 593.6V611.136C972.894 609.259 976.222 608.32 980.147 608.32C984.328 608.32 987.699 609.664 990.259 612.352C992.862 614.997 994.163 618.496 994.163 622.848V631.744C994.163 632.469 994.355 633.045 994.739 633.472C995.166 633.899 995.72 634.112 996.403 634.112C997.086 634.112 997.875 634.027 998.771 633.856C999.454 633.728 999.838 633.984 999.923 634.624L1000.44 639.04C1000.48 639.595 1000.22 639.979 999.667 640.192C998.088 640.704 996.638 640.96 995.315 640.96ZM1021.65 640.96C1016.58 640.96 1012.46 639.467 1009.3 636.48C1006.19 633.493 1004.63 629.547 1004.63 624.64C1004.63 619.733 1006.14 615.787 1009.17 612.8C1012.25 609.813 1016.26 608.32 1021.21 608.32C1026.03 608.32 1029.91 609.792 1032.85 612.736C1035.84 615.68 1037.33 619.563 1037.33 624.384C1037.33 624.981 1037.29 625.835 1037.21 626.944C1037.08 627.499 1036.72 627.776 1036.12 627.776H1012.5C1013.1 629.909 1014.23 631.595 1015.89 632.832C1017.56 634.069 1019.54 634.688 1021.85 634.688C1024.62 634.688 1026.65 633.941 1027.93 632.448C1028.31 632.064 1028.72 631.872 1029.14 631.872H1035.48C1035.82 631.872 1036.08 631.979 1036.25 632.192C1036.42 632.405 1036.42 632.661 1036.25 632.96C1035.14 635.392 1033.26 637.333 1030.61 638.784C1028.01 640.235 1025.02 640.96 1021.65 640.96ZM1012.31 622.272H1029.4C1029.31 620.011 1028.54 618.176 1027.09 616.768C1025.69 615.317 1023.79 614.592 1021.4 614.592C1019.01 614.592 1016.96 615.296 1015.25 616.704C1013.59 618.112 1012.61 619.968 1012.31 622.272ZM1078.97 640.96C1074.62 640.96 1070.99 639.659 1068.09 637.056C1065.19 634.453 1063.74 630.912 1063.74 626.432V617.536C1063.74 615.957 1062.84 615.168 1061.05 615.168C1060.75 615.168 1060.16 615.232 1059.26 615.36C1058.49 615.445 1058.11 615.189 1058.11 614.592V610.112C1058.11 609.515 1058.36 609.131 1058.88 608.96C1060.24 608.533 1061.67 608.32 1063.16 608.32C1065.81 608.32 1067.86 609.024 1069.31 610.432C1070.8 611.797 1071.55 613.739 1071.55 616.256V625.984C1071.55 628.928 1072.14 631.04 1073.34 632.32C1074.58 633.6 1076.45 634.24 1078.97 634.24C1081.87 634.24 1083.77 633.429 1084.67 631.808C1085.61 630.187 1086.08 627.733 1086.08 624.448V610.24C1086.08 609.6 1086.4 609.28 1087.04 609.28H1092.92C1093.56 609.28 1093.88 609.6 1093.88 610.24V625.984C1093.88 628.885 1094.46 630.997 1095.61 632.32C1096.76 633.6 1098.56 634.24 1100.99 634.24C1103.16 634.24 1104.93 633.323 1106.3 631.488C1107.71 629.653 1108.41 627.307 1108.41 624.448C1108.41 619.584 1107.49 614.891 1105.66 610.368C1105.36 609.643 1105.62 609.28 1106.43 609.28H1112.25C1112.76 609.28 1113.13 609.536 1113.34 610.048C1115.26 615.083 1116.22 619.861 1116.22 624.384C1116.22 629.291 1114.81 633.28 1112 636.352C1109.18 639.424 1105.51 640.96 1100.99 640.96C1096.55 640.96 1092.9 639.381 1090.04 636.224C1088.76 637.845 1087.25 639.04 1085.5 639.808C1083.79 640.576 1081.62 640.96 1078.97 640.96ZM1152.38 636.48C1149.27 639.467 1145.15 640.96 1140.03 640.96C1134.91 640.96 1130.77 639.467 1127.61 636.48C1124.5 633.493 1122.94 629.547 1122.94 624.64C1122.94 619.733 1124.5 615.787 1127.61 612.8C1130.77 609.813 1134.91 608.32 1140.03 608.32C1145.15 608.32 1149.27 609.813 1152.38 612.8C1155.54 615.787 1157.12 619.733 1157.12 624.64C1157.12 629.547 1155.54 633.493 1152.38 636.48ZM1133.31 631.616C1135.02 633.365 1137.26 634.24 1140.03 634.24C1142.8 634.24 1145.04 633.365 1146.75 631.616C1148.46 629.867 1149.31 627.541 1149.31 624.64C1149.31 621.739 1148.46 619.413 1146.75 617.664C1145.04 615.915 1142.8 615.04 1140.03 615.04C1137.26 615.04 1135.02 615.915 1133.31 617.664C1131.6 619.413 1130.75 621.739 1130.75 624.64C1130.75 627.541 1131.6 629.867 1133.31 631.616ZM1189.5 608.96C1190.06 609.131 1190.29 609.515 1190.21 610.112L1189.44 614.912C1189.31 615.552 1188.93 615.808 1188.29 615.68C1187.09 615.467 1185.88 615.36 1184.64 615.36C1181.91 615.36 1179.67 616.213 1177.92 617.92C1176.21 619.627 1175.36 621.867 1175.36 624.64V639.04C1175.36 639.68 1175.04 640 1174.4 640H1168.51C1167.87 640 1167.55 639.68 1167.55 639.04V617.536C1167.55 615.957 1166.66 615.168 1164.86 615.168C1164.57 615.168 1163.97 615.232 1163.07 615.36C1162.3 615.445 1161.92 615.189 1161.92 614.592V610.112C1161.92 609.515 1162.18 609.131 1162.69 608.96C1164.05 608.533 1165.35 608.32 1166.59 608.32C1170.47 608.32 1172.97 609.856 1174.08 612.928C1176.9 609.856 1180.44 608.32 1184.7 608.32C1186.5 608.32 1188.1 608.533 1189.5 608.96ZM1205.57 640.96C1202.88 640.96 1200.7 640.32 1199.04 639.04C1197.42 637.717 1196.61 635.989 1196.61 633.856V593.6C1196.61 592.96 1196.93 592.64 1197.57 592.64H1203.45C1204.09 592.64 1204.41 592.96 1204.41 593.6V631.744C1204.41 632.469 1204.61 633.045 1204.99 633.472C1205.42 633.899 1205.97 634.112 1206.65 634.112C1207.34 634.112 1208.13 634.027 1209.02 633.856C1209.7 633.728 1210.09 633.984 1210.17 634.624L1210.69 639.04C1210.77 639.595 1210.51 639.979 1209.92 640.192C1208.34 640.704 1206.89 640.96 1205.57 640.96ZM1255.57 639.04C1255.61 639.595 1255.36 639.979 1254.8 640.192C1253.22 640.704 1251.77 640.96 1250.45 640.96C1246.78 640.96 1244.31 639.637 1243.03 636.992C1240 639.637 1236.48 640.96 1232.47 640.96C1227.52 640.96 1223.44 639.445 1220.24 636.416C1217.08 633.344 1215.51 629.419 1215.51 624.64C1215.51 619.861 1217.08 615.957 1220.24 612.928C1223.44 609.856 1227.52 608.32 1232.47 608.32C1235.79 608.32 1238.78 609.237 1241.43 611.072V593.6C1241.43 592.96 1241.75 592.64 1242.39 592.64H1248.34C1248.98 592.64 1249.3 592.96 1249.3 593.6V631.744C1249.3 632.469 1249.49 633.045 1249.87 633.472C1250.3 633.899 1250.85 634.112 1251.54 634.112C1252.22 634.112 1253.01 634.027 1253.91 633.856C1254.59 633.728 1254.97 633.984 1255.06 634.624L1255.57 639.04ZM1232.53 634.56C1235.17 634.56 1237.33 633.643 1238.99 631.808C1240.66 629.931 1241.49 627.541 1241.49 624.64C1241.49 621.739 1240.66 619.371 1238.99 617.536C1237.33 615.659 1235.17 614.72 1232.53 614.72C1229.84 614.72 1227.62 615.659 1225.87 617.536C1224.17 619.371 1223.31 621.739 1223.31 624.64C1223.31 627.541 1224.17 629.931 1225.87 631.808C1227.62 633.643 1229.84 634.56 1232.53 634.56ZM1306.44 636.48C1303.33 639.467 1299.21 640.96 1294.09 640.96C1288.97 640.96 1284.83 639.467 1281.68 636.48C1278.56 633.493 1277.01 629.547 1277.01 624.64C1277.01 619.733 1278.56 615.787 1281.68 612.8C1284.83 609.813 1288.97 608.32 1294.09 608.32C1299.21 608.32 1303.33 609.813 1306.44 612.8C1309.6 615.787 1311.18 619.733 1311.18 624.64C1311.18 629.547 1309.6 633.493 1306.44 636.48ZM1287.37 631.616C1289.08 633.365 1291.32 634.24 1294.09 634.24C1296.87 634.24 1299.11 633.365 1300.81 631.616C1302.52 629.867 1303.37 627.541 1303.37 624.64C1303.37 621.739 1302.52 619.413 1300.81 617.664C1299.11 615.915 1296.87 615.04 1294.09 615.04C1291.32 615.04 1289.08 615.915 1287.37 617.664C1285.67 619.413 1284.81 621.739 1284.81 624.64C1284.81 627.541 1285.67 629.867 1287.37 631.616ZM1324.3 640C1323.66 640 1323.34 639.68 1323.34 639.04V615.488H1315.34C1314.7 615.488 1314.38 615.168 1314.38 614.528V610.24C1314.38 609.6 1314.7 609.28 1315.34 609.28H1323.34V604.608C1323.34 600.725 1324.58 597.611 1327.05 595.264C1329.53 592.875 1332.79 591.68 1336.85 591.68C1339.53 591.68 1341.99 592.021 1344.21 592.704C1344.76 592.917 1345 593.28 1344.91 593.792L1344.14 598.336C1343.97 599.061 1343.59 599.339 1342.99 599.168C1341.45 598.699 1339.75 598.464 1337.87 598.464C1335.87 598.464 1334.24 599.04 1333.01 600.192C1331.77 601.301 1331.15 602.773 1331.15 604.608V609.28H1342.8C1343.44 609.28 1343.76 609.6 1343.76 610.24V614.528C1343.76 615.168 1343.44 615.488 1342.8 615.488H1331.15V639.04C1331.15 639.68 1330.83 640 1330.19 640H1324.3ZM1380.28 640.96C1375.16 640.96 1371.04 639.467 1367.93 636.48C1364.81 633.493 1363.26 629.547 1363.26 624.64C1363.26 619.733 1364.81 615.787 1367.93 612.8C1371.04 609.813 1375.16 608.32 1380.28 608.32C1384.33 608.32 1387.75 609.323 1390.52 611.328C1393.34 613.333 1395.08 616 1395.77 619.328C1395.9 620.011 1395.62 620.352 1394.94 620.352H1388.86C1388.34 620.352 1388 620.075 1387.83 619.52C1387.36 618.155 1386.44 617.067 1385.08 616.256C1383.71 615.403 1382.11 614.976 1380.28 614.976C1377.51 614.976 1375.27 615.872 1373.56 617.664C1371.9 619.413 1371.06 621.739 1371.06 624.64C1371.06 627.541 1371.9 629.888 1373.56 631.68C1375.27 633.429 1377.51 634.304 1380.28 634.304C1382.11 634.304 1383.71 633.899 1385.08 633.088C1386.44 632.235 1387.36 631.125 1387.83 629.76C1388 629.205 1388.34 628.928 1388.86 628.928H1394.94C1395.62 628.928 1395.9 629.269 1395.77 629.952C1395.08 633.28 1393.34 635.947 1390.52 637.952C1387.75 639.957 1384.33 640.96 1380.28 640.96ZM1430.94 636.48C1427.83 639.467 1423.71 640.96 1418.59 640.96C1413.47 640.96 1409.33 639.467 1406.18 636.48C1403.06 633.493 1401.51 629.547 1401.51 624.64C1401.51 619.733 1403.06 615.787 1406.18 612.8C1409.33 609.813 1413.47 608.32 1418.59 608.32C1423.71 608.32 1427.83 609.813 1430.94 612.8C1434.1 615.787 1435.68 619.733 1435.68 624.64C1435.68 629.547 1434.1 633.493 1430.94 636.48ZM1411.87 631.616C1413.58 633.365 1415.82 634.24 1418.59 634.24C1421.37 634.24 1423.61 633.365 1425.31 631.616C1427.02 629.867 1427.87 627.541 1427.87 624.64C1427.87 621.739 1427.02 619.413 1425.31 617.664C1423.61 615.915 1421.37 615.04 1418.59 615.04C1415.82 615.04 1413.58 615.915 1411.87 617.664C1410.17 619.413 1409.31 621.739 1409.31 624.64C1409.31 627.541 1410.17 629.867 1411.87 631.616ZM1470.88 636.48C1467.77 639.467 1463.65 640.96 1458.53 640.96C1453.41 640.96 1449.27 639.467 1446.11 636.48C1443 633.493 1441.44 629.547 1441.44 624.64C1441.44 619.733 1443 615.787 1446.11 612.8C1449.27 609.813 1453.41 608.32 1458.53 608.32C1463.65 608.32 1467.77 609.813 1470.88 612.8C1474.04 615.787 1475.62 619.733 1475.62 624.64C1475.62 629.547 1474.04 633.493 1470.88 636.48ZM1451.81 631.616C1453.52 633.365 1455.76 634.24 1458.53 634.24C1461.3 634.24 1463.54 633.365 1465.25 631.616C1466.96 629.867 1467.81 627.541 1467.81 624.64C1467.81 621.739 1466.96 619.413 1465.25 617.664C1463.54 615.915 1461.3 615.04 1458.53 615.04C1455.76 615.04 1453.52 615.915 1451.81 617.664C1450.1 619.413 1449.25 621.739 1449.25 624.64C1449.25 627.541 1450.1 629.867 1451.81 631.616ZM1515.62 638.848C1515.88 639.189 1515.94 639.467 1515.81 639.68C1515.68 639.893 1515.43 640 1515.04 640H1507.11C1506.6 640 1506.21 639.808 1505.96 639.424L1497.44 627.84C1497.02 627.883 1496.4 627.904 1495.59 627.904H1490.79V639.04C1490.79 639.68 1490.47 640 1489.83 640H1483.94C1483.3 640 1482.98 639.68 1482.98 639.04V593.6C1482.98 592.96 1483.3 592.64 1483.94 592.64H1489.83C1490.47 592.64 1490.79 592.96 1490.79 593.6V621.696H1494.18C1497.81 621.696 1500.73 620.693 1502.95 618.688C1505.21 616.683 1506.53 613.867 1506.92 610.24C1507 609.6 1507.32 609.28 1507.88 609.28H1513.76C1514.49 609.28 1514.81 609.6 1514.72 610.24C1514 617.451 1510.88 622.549 1505.38 625.536L1515.62 638.848ZM1536.72 640.96C1531.64 640.96 1527.52 639.467 1524.36 636.48C1521.25 633.493 1519.69 629.547 1519.69 624.64C1519.69 619.733 1521.21 615.787 1524.24 612.8C1527.31 609.813 1531.32 608.32 1536.27 608.32C1541.09 608.32 1544.97 609.792 1547.92 612.736C1550.9 615.68 1552.4 619.563 1552.4 624.384C1552.4 624.981 1552.35 625.835 1552.27 626.944C1552.14 627.499 1551.78 627.776 1551.18 627.776H1527.56C1528.16 629.909 1529.29 631.595 1530.96 632.832C1532.62 634.069 1534.6 634.688 1536.91 634.688C1539.68 634.688 1541.71 633.941 1542.99 632.448C1543.37 632.064 1543.78 631.872 1544.2 631.872H1550.54C1550.88 631.872 1551.14 631.979 1551.31 632.192C1551.48 632.405 1551.48 632.661 1551.31 632.96C1550.2 635.392 1548.32 637.333 1545.68 638.784C1543.07 640.235 1540.09 640.96 1536.72 640.96ZM1527.37 622.272H1544.46C1544.38 620.011 1543.61 618.176 1542.16 616.768C1540.75 615.317 1538.85 614.592 1536.46 614.592C1534.07 614.592 1532.02 615.296 1530.32 616.704C1528.65 618.112 1527.67 619.968 1527.37 622.272ZM1584.75 608.96C1585.31 609.131 1585.54 609.515 1585.46 610.112L1584.69 614.912C1584.56 615.552 1584.18 615.808 1583.54 615.68C1582.34 615.467 1581.13 615.36 1579.89 615.36C1577.16 615.36 1574.92 616.213 1573.17 617.92C1571.46 619.627 1570.61 621.867 1570.61 624.64V639.04C1570.61 639.68 1570.29 640 1569.65 640H1563.76C1563.12 640 1562.8 639.68 1562.8 639.04V617.536C1562.8 615.957 1561.91 615.168 1560.11 615.168C1559.82 615.168 1559.22 615.232 1558.32 615.36C1557.55 615.445 1557.17 615.189 1557.17 614.592V610.112C1557.17 609.515 1557.43 609.131 1557.94 608.96C1559.3 608.533 1560.6 608.32 1561.84 608.32C1565.72 608.32 1568.22 609.856 1569.33 612.928C1572.15 609.856 1575.69 608.32 1579.95 608.32C1581.75 608.32 1583.35 608.533 1584.75 608.96ZM1607.28 655.68C1602.84 655.68 1599.09 654.613 1596.02 652.48C1592.94 650.347 1591.24 647.573 1590.9 644.16C1590.81 643.477 1591.11 643.136 1591.79 643.136H1597.87C1598.38 643.136 1598.72 643.413 1598.9 643.968C1600 647.296 1602.8 648.96 1607.28 648.96C1609.67 648.96 1611.65 648.256 1613.23 646.848C1614.81 645.44 1615.6 643.413 1615.6 640.768V638.144C1612.87 640.021 1609.54 640.96 1605.62 640.96C1601.43 640.96 1598.04 639.637 1595.44 636.992C1592.88 634.304 1591.6 630.784 1591.6 626.432V610.24C1591.6 609.6 1591.92 609.28 1592.56 609.28H1598.45C1599.09 609.28 1599.41 609.6 1599.41 610.24V625.984C1599.41 628.459 1600.13 630.464 1601.58 632C1603.03 633.493 1604.93 634.24 1607.28 634.24C1609.75 634.24 1611.76 633.536 1613.3 632.128C1614.83 630.677 1615.6 628.779 1615.6 626.432V610.24C1615.6 609.6 1615.92 609.28 1616.56 609.28H1622.45C1623.09 609.28 1623.41 609.6 1623.41 610.24V640.768C1623.41 645.163 1621.94 648.747 1618.99 651.52C1616.09 654.293 1612.19 655.68 1607.28 655.68Z" fill="#2B4248"/>
</g>
<defs>
<linearGradient id="paint0_linear_17_75" x1="0" y1="0" x2="1920" y2="1080" gradientUnits="userSpaceOnUse">
<stop stop-color="#F4D0E4"/>
<stop offset="1" stop-color="#CF9395"/>
</linearGradient>
<clipPath id="clip0_17_75">
<rect width="1920" height="1080" fill="white"/>
</clipPath>
</defs>
</svg>
