<svg width="48" height="42" viewBox="0 0 48 42" fill="none" xmlns="http://www.w3.org/2000/svg">
<path d="M0.713506 18.0567C1.99742 12.9007 4.97093 8.32195 9.16055 5.04982C13.3502 1.77762 18.5151 0 23.8329 0C29.1506 0 34.3155 1.77762 38.5052 5.04982C42.6948 8.32195 45.6682 12.9007 46.9522 18.0567H44.8639C41.3411 18.0048 37.8905 19.0568 34.9966 21.0647C34.8296 21.1856 34.6552 21.296 34.4745 21.3951H34.2309C34.0503 21.296 33.8759 21.1856 33.7088 21.0647C30.7894 19.1032 27.351 18.0556 23.8329 18.0556C20.3147 18.0556 16.8763 19.1032 13.9569 21.0647C13.7898 21.1856 13.6154 21.296 13.4348 21.3951H13.1912C13.0105 21.296 12.8362 21.1856 12.6691 21.0647C9.77521 19.0568 6.32463 18.0048 2.80182 18.0567H0.713506ZM41.1049 28.9588C42.1769 28.1247 43.5056 27.6883 44.8639 27.7243H47.6657V22.1428H44.8639C42.4714 22.1139 40.1337 22.8579 38.1987 24.2641C37.1098 25.0662 35.7926 25.499 34.4397 25.499C33.0869 25.499 31.7697 25.0662 30.6808 24.2641C28.6967 22.8842 26.3373 22.1443 23.9199 22.1443C21.5025 22.1443 19.143 22.8842 17.159 24.2641C16.0701 25.0662 14.7529 25.499 13.4 25.499C12.0471 25.499 10.7299 25.0662 9.64104 24.2641C7.6822 22.8399 5.31092 22.095 2.88883 22.1428H0V27.7243H2.80182C4.16011 27.6883 5.48878 28.1247 6.56078 28.9588C8.5412 30.3397 10.898 31.0801 13.313 31.0801C15.7279 31.0801 18.0848 30.3397 20.0652 28.9588C21.1386 28.1273 22.4662 27.6912 23.8242 27.7243C25.183 27.6853 26.5125 28.1221 27.5831 28.9588C29.5672 30.3388 31.9266 31.0785 34.344 31.0785C36.7614 31.0785 39.1209 30.3388 41.1049 28.9588ZM41.1049 38.9394C42.1769 38.1053 43.5056 37.6688 44.8639 37.7048H47.6657V32.1234H44.8639C42.4714 32.0945 40.1337 32.8385 38.1987 34.2447C37.1098 35.0468 35.7926 35.4795 34.4397 35.4795C33.0869 35.4795 31.7697 35.0468 30.6808 34.2447C28.6967 32.8648 26.3373 32.1251 23.9199 32.1251C21.5025 32.1251 19.143 32.8648 17.159 34.2447C16.0701 35.0468 14.7529 35.4795 13.4 35.4795C12.0471 35.4795 10.7299 35.0468 9.64104 34.2447C7.6822 32.8206 5.31092 32.0755 2.88883 32.1234H0V37.7048H2.80182C4.16011 37.6688 5.48878 38.1053 6.56078 38.9394C8.5412 40.3203 10.898 41.0607 13.313 41.0607C15.7279 41.0607 18.0848 40.3203 20.0652 38.9394C21.1386 38.1079 22.4662 37.6718 23.8242 37.7048C25.183 37.6659 26.5125 38.1027 27.5831 38.9394C29.5672 40.3194 31.9266 41.0591 34.344 41.0591C36.7614 41.0591 39.1209 40.3194 41.1049 38.9394Z" fill="#2B4248"/>
</svg>
