<svg width="48" height="42" viewBox="0 0 48 42" fill="none" xmlns="http://www.w3.org/2000/svg">
<path d="M0.895322 18.2036C2.17923 13.0476 5.15275 8.46889 9.34237 5.19676C13.532 1.92456 18.697 0.146938 24.0147 0.146938C29.3324 0.146938 34.4973 1.92456 38.687 5.19676C42.8767 8.46889 45.8501 13.0476 47.134 18.2036H45.0457C41.5229 18.1518 38.0723 19.2037 35.1784 21.2117C35.0114 21.3325 34.837 21.4429 34.6564 21.5421H34.4127C34.2321 21.4429 34.0577 21.3325 33.8906 21.2117C30.9712 19.2502 27.5328 18.2026 24.0147 18.2026C20.4966 18.2026 17.0582 19.2502 14.1387 21.2117C13.9716 21.3325 13.7973 21.4429 13.6166 21.5421H13.373C13.1923 21.4429 13.018 21.3325 12.8509 21.2117C9.95703 19.2037 6.50644 18.1518 2.98363 18.2036H0.895322ZM41.2868 29.1057C42.3588 28.2716 43.6874 27.8352 45.0457 27.8712H47.8475V22.2897H45.0457C42.6532 22.2609 40.3155 23.0049 38.3805 24.411C37.2916 25.2131 35.9744 25.6459 34.6216 25.6459C33.2687 25.6459 31.9515 25.2131 30.8626 24.411C28.8785 23.0311 26.5191 22.2913 24.1017 22.2913C21.6843 22.2913 19.3248 23.0311 17.3408 24.411C16.2519 25.2131 14.9347 25.6459 13.5818 25.6459C12.2289 25.6459 10.9117 25.2131 9.82285 24.411C7.86402 22.9868 5.49274 22.2419 3.07065 22.2897H0.181816V27.8712H2.98363C4.34192 27.8352 5.6706 28.2716 6.7426 29.1057C8.72301 30.4867 11.0798 31.227 13.4948 31.227C15.9098 31.227 18.2666 30.4867 20.247 29.1057C21.3204 28.2742 22.648 27.8382 24.006 27.8712C25.3648 27.8322 26.6943 28.269 27.7649 29.1057C29.749 30.4858 32.1084 31.2255 34.5258 31.2255C36.9432 31.2255 39.3027 30.4858 41.2868 29.1057ZM41.2868 39.0863C42.3588 38.2522 43.6874 37.8158 45.0457 37.8518H47.8475V32.2703H45.0457C42.6532 32.2414 40.3155 32.9855 38.3805 34.3916C37.2916 35.1937 35.9744 35.6265 34.6216 35.6265C33.2687 35.6265 31.9515 35.1937 30.8626 34.3916C28.8785 33.0117 26.5191 32.272 24.1017 32.272C21.6843 32.272 19.3248 33.0117 17.3408 34.3916C16.2519 35.1937 14.9347 35.6265 13.5818 35.6265C12.2289 35.6265 10.9117 35.1937 9.82285 34.3916C7.86402 32.9675 5.49274 32.2225 3.07065 32.2703H0.181816V37.8518H2.98363C4.34192 37.8158 5.6706 38.2522 6.7426 39.0863C8.72301 40.4672 11.0798 41.2076 13.4948 41.2076C15.9098 41.2076 18.2666 40.4672 20.247 39.0863C21.3204 38.2548 22.648 37.8187 24.006 37.8518C25.3648 37.8128 26.6943 38.2496 27.7649 39.0863C29.749 40.4664 32.1084 41.206 34.5258 41.206C36.9432 41.206 39.3027 40.4664 41.2868 39.0863Z" fill="#E5F3F6"/>
</svg>
